<svg width="640" height="658" viewBox="0 0 640 658" fill="none" xmlns="http://www.w3.org/2000/svg">
<path d="M83.6618 264.478C93.9672 257.3 107.375 256.403 118.567 262.123C131.421 269.526 138.402 286.799 138.402 310.241V382.361C138.402 417.019 151.921 441.582 174.637 448.312C212.867 459.641 241.456 412.196 252.426 394.362L320.131 283.434V418.813C320.907 449.995 330.88 468.726 349.939 474.334C362.461 478.035 381.298 476.577 399.582 448.312L550.949 202.34C571.116 241.261 581.643 284.668 581.422 328.635C581.422 476.913 464.406 597.488 320.131 597.488C175.856 597.488 58.5078 476.913 58.5078 328.635V327.85C58.5078 327.85 58.5078 327.289 58.5078 327.065C57.0673 298.463 66.2646 275.582 83.6618 264.478ZM-4.57847e-05 328.635V330.093C1.21887 510.674 144.386 657.27 320.131 657.27C495.876 657.27 639.93 509.889 639.93 328.635C639.93 147.381 496.541 -6.10352e-05 320.131 -6.10352e-05C239.24 -6.10352e-05 161.451 31.4053 102.721 87.7108C90.8645 99.0391 90.1996 117.882 101.17 129.996C111.808 141.885 129.87 142.782 141.726 132.015L141.837 131.903C245.445 32.4148 409.112 36.7891 507.401 141.661C509.838 144.24 512.165 146.82 514.492 149.512L378.306 371.257V268.965C378.306 219.838 359.469 203.911 343.734 199.2C327.999 194.489 303.731 197.742 278.466 239.354L203.115 362.732C200.788 366.658 198.572 370.135 196.467 373.051V310.353C196.467 264.366 178.294 227.689 146.27 209.519C116.683 193.368 80.7808 194.826 52.5241 213.332C17.3972 236.438 -1.77301 278.274 0.221573 328.635H-4.57847e-05Z" fill="white"/>
</svg>
